<svg xmlns="http://www.w3.org/2000/svg" viewBox="0 0 64 64"><defs><linearGradient id="g" x1="0" y1="0" x2="1" y2="1"><stop stop-color="#b9ff4d"/><stop offset="1" stop-color="#6f37df"/></linearGradient><filter id="s"><feDropShadow dx="0" dy="3" stdDeviation="2" flood-opacity=".35"/></filter></defs><circle cx="32" cy="32" r="29" fill="url(#g)" filter="url(#s)"/><circle cx="25" cy="22" r="16" fill="#ffffff14"/><path d="M32 15c-7 0-12 5-12 12 0 3 1 6 3 8-5 2-8 7-8 12 0 8 6 14 14 14h5v-46h-2z M38 15c7 0 12 5 12 12 0 3-1 6-3 8 5 2 8 7 8 12 0 8-6 14-14 14h-5v-46h2z" fill="none" stroke="white" stroke-width="4" stroke-linecap="round" stroke-linejoin="round"/></svg>